<?xml version="1.0" encoding="UTF-8"?>
<svg id="Layer_1" xmlns="http://www.w3.org/2000/svg" version="1.1" viewBox="0 0 200 200">
  <!-- Generator: Adobe Illustrator 30.3.0, SVG Export Plug-In . SVG Version: 2.1.3 Build 182)  -->
  <path d="M138.7,102.7c-1.3-3.9-2.7-7.6-4.7-11.2,2.1-3.3,2.4-7.2-.1-10.3,1.4-3.5.3-7.1-3.2-8.4l.8-1.8c2-.5,3.7-1.8,4.8-3.6,3-4.9,3.3-12,.7-17.1-.7-1.3-1.6-2.4-2.9-3.2-2.5-18.4-18.4-30.2-36.8-29.5-19.2.7-35.6,15.8-34.7,35.5-2.6,2-3.4,4.8-3.5,8-.1,4.5,1.1,8.9,3.8,12.5,1.2,1.6,2.7,2.8,4.6,3.3h1.9c.6,2,1.9,3.3,3.3,4.6-1.3,2.9-.4,5.6,2.1,7.5-4.7,5.6-7.4,13-10.5,19.6l-2.4,5.1c-1.8,4.4-1.9,9.2-.2,13.6l1,1.6c1.3,2.5,3,5.1,5.6,6.2-.1,1.4.7,2.4,1.9,3l.2,3.2,1,10.6,1.6,15.2c-4.3,2.3-6.8,6.4-5.9,11.1.3,1.4,1.3,2.3,2.7,2.6,6.8,1.8,17.4.4,24.4-1.3,1.5-.4,2.2-1.7,2.5-3.2.2-2.6-.1-5-.4-7.6l.9-12.3,2.6,10.6c.3,1.2.8,2.6.8,4,0,3.8-1.1,8.5,2.8,9.8,6.8,2.2,16.6,3.1,23.3.9,3.8-1.3,3.2-7.2.7-10.6l-2.5-2.6v-3.3c-.1,0-.8-8.8-.8-8.8l-1-16.1c1.3-.8,2.5-2,2.6-3.5l.2-2.5,1.6-1,2.5-1.3c4.2-2.9,7.5-6.8,9.5-11.5,2.5-5.9,1.2-11.5-.8-17.4h0ZM136,52.1c1.5,4.1,1.4,8.6-.3,12.6-.7,1.7-1.7,3.2-3.4,4.1-1.2.6-2.4-.5-3-1.5-1.1-1.8-1.6-3.8-1.8-5.9-.4-4.2,0-8.8,2.6-12.2.5-.6,1.6-1.5,2.4-1.2,1.8.6,3,2.4,3.6,4.1h0ZM110.1,62.5c.6-.5,1.3-.6,1.9-.3.5.2.9.9,1,1.6.2,2.8-2.1,5.9-3.8,5-2-1-1.2-4.6.9-6.4h0ZM107.9,56c-1.6-2.3-1.5-5.7.4-7.7,1.4-1.5,3.5-1.5,5-.2,2,1.7,2.6,4.7,1.6,7.2-.6,1.5-1.9,2.7-3.5,2.7-1.4,0-2.7-.8-3.5-2h0ZM115,77.9c3-3.3,5.4-7.1,6.7-11.4l.3-1,.9,2c-1.4,5-4.6,10-9,12.9-1.2.8-2.7,1.1-4.1,1.7,1.8-1.4,3.5-2.5,5.1-4.2h0ZM121.9,72.6l1.7-3.9c1.4,2,3.5,2.9,6,2.4-1,2.2-2.3,4.3-4.1,6l-5.5,1.5-3.6,1.1c2.1-2.3,4.1-4.4,5.4-7.2h0ZM124.6,67.5c-4-6.6-1.8-19.1,3.1-20.4,1.3-.3,2.6,0,3.8.4-1.3.4-2.2.9-2.9,2-2.1,3.3-2.7,7.9-2.3,11.9.3,2.9,1.4,6.8,4.1,8.2-2.2.8-4.6,0-5.8-2h0ZM74.5,28.3c6-5.4,13.5-8.7,21.5-9.3,17.4-1.3,33.5,9.5,36.3,27.1-3.3-1.3-6.1-1.2-8.2,1.7-3.1-12.7-14.4-22.5-27.5-23.4-9-.7-17.9,2.4-24.6,8.4-2.1,1.8-3.5,3.9-5.2,6.1,1.8-4.2,4.4-7.6,7.6-10.7h0ZM69.7,37c1.3-1.5,2.6-2.9,4.1-4.1,5.3-4.3,11.7-6.6,18.4-7.2h4.2c13.5,1.1,23.9,10.4,26.9,23.4l-1.2,2.6c-2.5-14.2-14.2-24.6-29-24.1-11.6.3-22.1,6.6-26.8,17.2l-2,5.3c-.1-4.4,2.6-9.9,5.4-13.1h0ZM88.5,88.8l-4.7-2.8c.3-.2.6,0,1,0,5.6,1.4,12.1,1,17.7-.4-2.3,1.2-4.4,2.2-6.4,3.7-2.6.2-5.1,0-7.7-.5ZM94.1,91l-2.7,2.7c-.4-.9-.9-2-1.7-2.9l4.4.2ZM71.1,65.9c.6.5.5,1.1.8,1.8l1.9,5-.2.3c-.4-.7-1.1-1.7-1.4-2.5-.2-.7-.3-1.2-.8-1.7.4-1.4-.7-1.9-.4-2.9h0ZM70.3,60.3c.1-.3.7-.6.9-.7.3,0,.9.4,1.1.7,1.1,1.9.2,4.7-.7,4.8-1,.1-2.2-2.7-1.3-4.8ZM72.1,55.5c-.2.6-1.1,1.4-1.7,1-.8-.5-1-1.8-.9-2.8,1-13.1,13.5-22.7,26.4-20,.7.2,1.4.6,1.8,1.2,0,.2-.5.7-.7.8-11.7.9-21.3,8.7-24.9,19.7h0ZM61.3,66.1c-.7-3-1-6,0-8.9.4-1.1,1-2.2,2-2.9,0,2.2,0,4.1,0,6.1.5,5.3,2.2,10.2,5.1,14.8-3.9-.6-6.4-5.5-7.2-9.2h0ZM68.8,69.9l3,3.5c2.2,3.1,4.5,5.8,7.8,7.7,2,1.6,4.4,2.4,6.9,3.2-2.4-.1-4.6-1.1-6.8-2.1-3.5-1.6-6.2-4.3-8.3-7.5-.9-1.6-1.8-3-2.5-4.8h0ZM70.7,76.3l2.9,3.5c-1.4-.6-2.4-1.9-2.9-3.5ZM64.1,127.2c-.3-1.2-.2-2.3,0-3.4.5-2.8,2-5.4,4.7-6.6-1.9,3.9-3.2,8.1-2.1,12.3.3,1.2,1.3,2.1,1.3,3.4-2-1.5-3.5-3.5-4-5.8h0ZM68.8,130.4c-1-1.5-1.1-3.5-.9-5.3.4-4.1,3.5-9.4,4.7-13.9,1.2-4.4,2-8.8,2.9-13.3.2-.9.5-1.8.4-2.8-1.2,2.3-1.9,4.4-2.5,6.8l-2.1,8c-.8-.8-1.4-1.2-2.3-1.1l1.8,1.2c-1.5.2-2.9,0-3.9,1.3,1.5-.4,2.5-.9,4.2-.4l-1.9,5.1c-.9.2-1.6.5-2.2.9-2.6,2-4,4.8-4.5,8.1-1.1-4.4-.7-7.9,1.2-11.9l3.6-7.8,1.4-3.1,2.9-6c1.2-2.5,2.7-4.7,4.5-6.9l1.7,1.4,5,2.8-2.1,10.6c-.6.4-1,1-1.1,1.6,0,.8.2,1.3.7,1.9l-.2,2c0,.6.7,1.4,1.2,1.5.7.2,1.7-.2,1.8-1.1l.2-2c.5-.4,1.1-.9,1.2-1.4.2-.8,0-1.5-.5-2.2l1.8-9.9,3.1.3c-.8-.7-1.7-1-2.8-1.3.4-1,.4-1.9-.6-2.5-.5-.3-1.2-.4-1.7-.2-.5.3-.7.9-.8,1.5l-2.7-1.8-3.6-2.5c-1.5-1.1-2.8-2-3.1-4.1-.1-.9.2-2.1.9-2.6l2.2,1.8c0,.4.1,1.2.4,1.3l5.1,2.7c1.5.8,3,1.4,4.3,2.5,1.6,1.4,2.8,3,3.7,4.9-1,2.1-1.6,4.3-2.1,6.6l-1.5,7.6-1.2,6.3-6-.5h-3.3c0-.1-1.5,2.8-1.5,2.8-.9,1.8-1.9,3.6-3.2,5.1-.9,1.1-1.4,2-1.3,3.5,0,2.1.7,4.1,1.8,6.1-1.1-.2-2.4-.6-3-1.6h0ZM80.9,106.3c-.3-.3-.2-1.2.3-1.4.4-.2,1.1-.1,1.6,0,.6.2.9.7.7,1.2-.4.7-2.1.8-2.6.1h0ZM82.4,108.2l-.2,1.4c0,.2-.3.5-.4.5-.2,0-.6-.3-.6-.5l.2-1.5c0-.2.4-.5.6-.5.2,0,.5.4.5.7h0ZM82.9,104.3l-1.1-.3c.5-4.1,1.4-7.8,2.4-11.7l.5-.6c.1-.2.5.4.6.6l-2.3,11.9h0ZM106.9,127.5l-.4,2.2c-3.7-1.8-6.7-6.1-7.4-10.1l-.5-3.1h2.6c-.4,4.3,1.8,8.8,5.6,11.1ZM106.5,130.3c0,1.5.2,2.9,1,4.4l-4.7.2h-8s-4-.2-4-.2l-3.4-.2c-2.1-3.9-2.8-7-1.7-11.5l1.7-6.9,2.9.2h3.8c0,.1,4.3.2,4.3.2,0,5.9,2.8,11.3,8.1,13.8h0ZM108,135.5c.8,1.2,1.8,2.2,3.1,3.3l-6,.6-2.8.2h-9.9s-4.8-.4-4.8-.4v-3.6s3.2.2,3.2.2l4.3.2h5.9s4.2-.2,4.2-.2l2.9-.3h0ZM71,126.2c-.4-1.1.2-2,1-2.8,2-2.3,3.4-5.1,4.6-7.9.3-.2,1-.2,1.4,0l-.6,2.1c.4-.7.6-1.2.9-2.1l7,.6-1.3,5.4c-1.2,5.1-1.4,7.8,1.1,12.8-4.2-.4-8.1-1.1-12.2-2-1.1-1.7-1.7-3.6-1.9-5.5.9-.9,1.8-1.5,2.2-2.7l-2.2,2.1h0ZM84.1,127.5c0-2.6.5-5.1,1.2-7.5.4-1.4.3-2.9,1.4-4.1-.6,3.3-1.6,6.3-2,9.5-.4,3.2.6,5.8,1.8,9-1.6-1.8-2.3-4.5-2.3-6.9h0ZM85.8,135.7c.2-.2,1-.2,1.1,0v3.5c-.2,0-.9,0-1.1-.2v-3.2s0,0,0,0ZM87,115h-.4c-.1.1-.1-.3-.1-.5l1.6-8.9,1-4.4c0-.2.5.1.5.2l-2.6,13.5ZM70,135.8c-.3-1.1-.3-2.2-.3-3.5l4.1,1.2c3.8.9,7.7,1.4,11.5,1.8v3.7c0,0-10.6-1.7-10.6-1.7-1.7-.3-3.2-.8-4.7-1.6ZM123.3,167.5c-4.3-2-9.3-1.6-13.1,1-.6.4-1.1.7-1.3,1.6,4.8-2.5,11-3.8,15.5-.2,2.5,2.1,3.8,5.1,3.1,8.3-.1.7-.7,1.3-1.4,1.5-1.8.6-3.5.9-5.4,1-5.6.4-11.2-.2-16.7-1.8-1.3-.4-2-1.3-2-2.7l.2-6.4c1.5,0,2.6.2,3.8-.6-1.3-.2-2.7.7-4.1-.2l-3-12.5,3.2.5h.4c.1,0,.3,0,.2,0-1-.6-2.5-.3-4.1-1.2l-3-10.1-5.3-.9-6.8-1.4c3,1.8,6.1,2.8,9.4,3.3l1.4.2,1.2,4-.9,17c-2.3.7-4.6.4-6.9,0,.1.2.5.5.7.6,1.8.4,3.7.5,5.4.2.2,0,.6-.3.7-.1v.7c.6,2.7,1.1,7.8-.9,8.3-3.9.9-7.8,1.6-11.9,1.9h-8c-1.4,0-2.8-.4-4.1-.8-1.7-.5-1.8-5.1,1.1-8.3,1.9-2,4.4-3.1,7.2-3.2,2.7-.1,5.1.9,7.8,1.8-1.2-1.7-3.3-2.3-5.3-2.8-2-.5-3.9-.4-5.9.2l-1.6-14.4-1.2-13.6,3.7.9c5.5,1.1,10.9,1.8,16.5,2h11.2c3.5,0,6.8-.4,10.3-1.1,2.2,2,5.2,2.3,8,.7l.2,2.7.3,5.5,1.4,18.4h0ZM122,138.7c-3.8,2.5-5.9,1.7-9.2-.5-2.7-1.8-4.7-4.5-5-7.8l.4-3.1-1.6-1.3c1.1-2.5,3.8-4.4,6.3-5.2l5.8,7.6c1.1,1.4,3.2,5,2.9,6-.3.9-1.3,1.5-2.2,2.1,1.4.3,2.6-.5,3.4-1.6h1.5c0,1.6-.7,2.9-2.1,3.8h0ZM123.2,133.5l-1-2.2c-2.1-3.9-4.9-7.3-7.8-10.8-.2-.9,1.1-2.2,2-2,3.7.9,9,8.7,9.5,13.2l-2.7,1.7h0ZM137.7,120.1c-2.3,4.6-6,8.9-10.5,11.1l-.5-2c-1.6-4.4-5.4-10.5-10.1-11.9,1.2-1.7,2.6-3.3,4.2-4.6,1.7-1.3,3.6-1.5,5.8-1.9-1.7-.5-3.2,0-5,.4,1.3-1.6,3.3-2,5.4-2.8-2.2-.2-4.3.6-6,2.3l-.4-2.3-1.8-6.7c-.4-1.3-.3-2.4-.1-3.8.7-4.4,3.5-8,7.8-9.4-2.4.1-4.2,1.8-5.7,3.6-1.8,2.3-2.9,5.2-3,8.2l.3,3.3c-.9-1.3-1.2-2.6-1.9-4.2-.2,2.4.9,4.6,2.3,6.4l1.2,5.9-1.9,1.8-1.8,2.2c-.3.3-.5.9-.7,1.4-1,.4-1.7,1.2-2.1,2.3-1.8,0-3.3,1-4.8,2.1-1.2.9-2.1,1.8-2.7,3.3-1.9-2.1-2.8-4.5-3-7.2,0-.7-.2-1.7-.7-2.2l-5.1-.2-5.9-.2h-3c0-.1,2.4-12.4,2.4-12.4l.6-2.4c-.6.2-1.4.3-1.9,0l.7-2.5.7-1.9c0-.1.4-.4.5-.4.2,0,.4.4.4.6l-.3,2.1h.3s1-3.3,1-3.3c3.5-4.4,8.6-6.8,13.7-9.3,6.5-3.1,13.2-5.4,20.2-7,1.6-.3,3.9-1.1,3.8-2.1h-1.7s1.9-2.8,1.9-2.8c2.9,1.3,3.8,4.8,1.9,7.4,2.4,2.3,2.8,5.9,1.1,8.7l-1.9-2.5c-4.3-4.6-11.3-2.8-16.6-.2l-9.5,4.7-3,1.3c.3-1.1,0-1.9-.9-2.3-.9-.4-2,0-2.4,1-.2.5-.3,1.1-.4,1.7l-2.8,1c1.1.3,1.8,0,2.7.1l-1.1,9.8c-.6.4-1.1,1-1.2,1.6-.1.8.2,1.4.7,2.1,0,.7-.2,1.7,0,2.4.2.9,1.1,1.4,1.8,1.2.8-.2,1.4-.8,1.4-1.7v-1.8c.7-.4,1.1-.9,1.3-1.4.2-.8,0-1.4-.7-2l1.2-9.2.2-1.5,4-1.3,7.8-3.5,5.3-2.3c3.4-1.5,8.5-1.6,11.1,1.4-1.3-.3-2.4-.4-3.6-.2,1.4.1,2.9.1,4,.7,1.9,2.3,3.2,4.9,4.3,7.7,1.8,4.2,3.2,8.5,4.2,13,.8,3.6.4,7-1.3,10.3h0ZM98.4,107.3c-.5,0-1.1.1-1.4-.3-.3-.4-.3-1.1.3-1.4.4-.2,1.3-.2,1.9,0,.7.2.9.8.7,1.2-.3.6-.8.6-1.5.5h0ZM98.7,108.2c0,.6-.1,1.8-.2,2.4,0,.2-.6.3-.7.2-.6-.6-.3-1.1-.1-2.2,0-.3.8-.5,1.1-.3h0ZM99.2,104.8l-1.3-.2,1.7-12.2.7-.6c.2-.1.6.4.6.6l-.5,3.5-1.2,8.8h0Z"/>
</svg>